REM DIRINDEX 1\2,1\3,1\4,1\5
REM DIRNAME folder01,folder02,folder03,folder04,folder05
TITLE ""
FILE "CD1Track02.mp3" MP3
  TRACK 01 AUDIO
    TITLE "5:cjc154_0002"
    INDEX 01 00:00:00
  TRACK 02 AUDIO
    TITLE "0:"
    INDEX 01 00:01:28
  TRACK 03 AUDIO
    TITLE "2:cjc154_0003"
    INDEX 01 00:02:42
  TRACK 04 AUDIO
    TITLE "3:cjc154_0004"
    INDEX 01 00:04:29
  TRACK 05 AUDIO
    TITLE "2:cjc154_0005"
    INDEX 01 00:06:30
  TRACK 06 AUDIO
    TITLE "3:cjc154_0006"
    INDEX 01 00:07:58
  TRACK 07 AUDIO
    TITLE "2:cjc154_0007"
    INDEX 01 00:09:22
  TRACK 08 AUDIO
    TITLE "3:cjc154_0008"
    INDEX 01 00:11:03
  TRACK 09 AUDIO
    TITLE "2:cjc154_0009"
    INDEX 01 00:12:65
  TRACK 10 AUDIO
    TITLE "3:cjc154_0010"
    INDEX 01 00:14:41
  TRACK 11 AUDIO
    TITLE "2:cjc154_0011"
    INDEX 01 00:16:28
  TRACK 12 AUDIO
    TITLE "3:cjc154_0012"
    INDEX 01 00:17:59
  TRACK 13 AUDIO
    TITLE "2:cjc154_0013"
    INDEX 01 00:19:24
  TRACK 14 AUDIO
    TITLE "3:cjc154_0014"
    INDEX 01 00:20:37
  TRACK 15 AUDIO
    TITLE "2:cjc154_0015"
    INDEX 01 00:21:53
  TRACK 16 AUDIO
    TITLE "3:cjc154_0016"
    INDEX 01 00:23:03
  TRACK 17 AUDIO
    TITLE "2:cjc154_0017"
    INDEX 01 00:24:25
  TRACK 18 AUDIO
    TITLE "3:cjc154_0018"
    INDEX 01 00:26:01
  TRACK 19 AUDIO
    TITLE "2:cjc154_0019"
    INDEX 01 00:27:53
  TRACK 20 AUDIO
    TITLE "3:cjc154_0020"
    INDEX 01 00:29:13
  TRACK 21 AUDIO
    TITLE "2:cjc154_0021"
    INDEX 01 00:30:54
  TRACK 22 AUDIO
    TITLE "3:cjc154_0022"
    INDEX 01 00:32:25
  TRACK 23 AUDIO
    TITLE "2:cjc154_0023"
    INDEX 01 00:33:73
  TRACK 24 AUDIO
    TITLE "3:cjc154_0024"
    INDEX 01 00:35:63
  TRACK 25 AUDIO
    TITLE "2:cjc154_0025"
    INDEX 01 00:37:42
  TRACK 26 AUDIO
    TITLE "3:cjc154_0026"
    INDEX 01 00:39:43
  TRACK 27 AUDIO
    TITLE "2:cjc154_0027"
    INDEX 01 00:41:49
  TRACK 28 AUDIO
    TITLE "3:cjc154_0028"
    INDEX 01 00:43:35
  TRACK 29 AUDIO
    TITLE "2:cjc154_0029"
    INDEX 01 00:45:32
  TRACK 30 AUDIO
    TITLE "3:cjc154_0030"
    INDEX 01 00:46:54
  TRACK 31 AUDIO
    TITLE "2:cjc154_0031"
    INDEX 01 00:48:14
  TRACK 32 AUDIO
    TITLE "3:cjc154_0032"
    INDEX 01 00:49:47
  TRACK 33 AUDIO
    TITLE "2:cjc154_0033"
    INDEX 01 00:51:11
  TRACK 34 AUDIO
    TITLE "3:cjc154_0034"
    INDEX 01 00:52:67
  TRACK 35 AUDIO
    TITLE "2:cjc154_0035"
    INDEX 01 00:54:52
  TRACK 36 AUDIO
    TITLE "3:cjc154_0036"
    INDEX 01 00:56:61
  TRACK 37 AUDIO
    TITLE "2:cjc154_0037"
    INDEX 01 00:59:04
  TRACK 38 AUDIO
    TITLE "3:cjc154_0038"
    INDEX 01 01:00:27
  TRACK 39 AUDIO
    TITLE "2:cjc154_0039"
    INDEX 01 01:01:56
  TRACK 40 AUDIO
    TITLE "3:cjc154_0040"
    INDEX 01 01:03:26
  TRACK 41 AUDIO
    TITLE "2:cjc154_0041"
    INDEX 01 01:05:03
  TRACK 42 AUDIO
    TITLE "3:cjc154_0042"
    INDEX 01 01:06:26
  TRACK 43 AUDIO
    TITLE "2:cjc154_0043"
    INDEX 01 01:07:59
  TRACK 44 AUDIO
    TITLE "3:cjc154_0044"
    INDEX 01 01:09:67
  TRACK 45 AUDIO
    TITLE "2:cjc154_0045"
    INDEX 01 01:12:11
  TRACK 46 AUDIO
    TITLE "3:cjc154_0046"
    INDEX 01 01:13:30
  TRACK 47 AUDIO
    TITLE "2:cjc154_0047"
    INDEX 01 01:14:65
  TRACK 48 AUDIO
    TITLE "3:cjc154_0048"
    INDEX 01 01:16:24
  TRACK 49 AUDIO
    TITLE "2:cjc154_0049"
    INDEX 01 01:17:67
  TRACK 50 AUDIO
    TITLE "3:cjc154_0050"
    INDEX 01 01:19:66
  TRACK 51 AUDIO
    TITLE "2:cjc154_0051"
    INDEX 01 01:22:01
  TRACK 52 AUDIO
    TITLE "3:cjc154_0052"
    INDEX 01 01:24:28
  TRACK 53 AUDIO
    TITLE "2:cjc154_0053"
    INDEX 01 01:26:60
  TRACK 54 AUDIO
    TITLE "3:cjc154_0054"
    INDEX 01 01:28:24
  TRACK 55 AUDIO
    TITLE "2:cjc154_0055"
    INDEX 01 01:29:68
  TRACK 56 AUDIO
    TITLE "3:cjc154_0056"
    INDEX 01 01:31:41
  TRACK 57 AUDIO
    TITLE "2:cjc154_0057"
    INDEX 01 01:33:21
  TRACK 58 AUDIO
    TITLE "3:cjc154_0058"
    INDEX 01 01:35:51
  TRACK 59 AUDIO
    TITLE "2:cjc154_0059"
    INDEX 01 01:38:12
  TRACK 60 AUDIO
    TITLE "3:cjc154_0060"
    INDEX 01 01:39:04
  TRACK 61 AUDIO
    TITLE "2:cjc154_0061"
    INDEX 01 01:40:07
  TRACK 62 AUDIO
    TITLE "3:cjc154_0062"
    INDEX 01 01:42:08
  TRACK 63 AUDIO
    TITLE "2:cjc154_0063"
    INDEX 01 01:44:13
  TRACK 64 AUDIO
    TITLE "3:cjc154_0064"
    INDEX 01 01:45:18
  TRACK 65 AUDIO
    TITLE "2:cjc154_0065"
    INDEX 01 01:46:35
  TRACK 66 AUDIO
    TITLE "3:cjc154_0066"
    INDEX 01 01:48:03
  TRACK 67 AUDIO
    TITLE "2:cjc154_0067"
    INDEX 01 01:49:55
  TRACK 68 AUDIO
    TITLE "3:cjc154_0068"
    INDEX 01 01:51:46
  TRACK 69 AUDIO
    TITLE "2:cjc154_0069"
    INDEX 01 01:53:43
  TRACK 70 AUDIO
    TITLE "3:cjc154_0070"
    INDEX 01 01:55:15
  TRACK 71 AUDIO
    TITLE "2:cjc154_0071"
    INDEX 01 01:56:71
  TRACK 72 AUDIO
    TITLE "3:cjc154_0072"
    INDEX 01 01:59:20
  TRACK 73 AUDIO
    TITLE "2:cjc154_0073"
    INDEX 01 02:01:54
  TRACK 74 AUDIO
    TITLE "3:cjc154_0074"
    INDEX 01 02:03:38
  TRACK 75 AUDIO
    TITLE "2:cjc154_0075"
    INDEX 01 02:05:21
  TRACK 76 AUDIO
    TITLE "3:cjc154_0076"
    INDEX 01 02:07:02
  TRACK 77 AUDIO
    TITLE "2:cjc154_0077"
    INDEX 01 02:08:60
  TRACK 78 AUDIO
    TITLE "3:cjc154_0078"
    INDEX 01 02:10:30
  TRACK 79 AUDIO
    TITLE "2:cjc154_0079"
    INDEX 01 02:12:01
  TRACK 80 AUDIO
    TITLE "3:cjc154_0080"
    INDEX 01 02:13:56
  TRACK 81 AUDIO
    TITLE "2:cjc154_0081"
    INDEX 01 02:15:35
  TRACK 82 AUDIO
    TITLE "3:cjc154_0082"
    INDEX 01 02:17:00
  TRACK 83 AUDIO
    TITLE "2:cjc154_0083"
    INDEX 01 02:18:39
  TRACK 84 AUDIO
    TITLE "3:cjc154_0084"
    INDEX 01 02:20:34
  TRACK 85 AUDIO
    TITLE "2:cjc154_0085"
    INDEX 01 02:22:33
  TRACK 86 AUDIO
    TITLE "3:cjc154_0086"
    INDEX 01 02:23:56
  TRACK 87 AUDIO
    TITLE "2:cjc154_0087"
    INDEX 01 02:25:08
  TRACK 88 AUDIO
    TITLE "3:cjc154_0088"
    INDEX 01 02:26:56
  TRACK 89 AUDIO
    TITLE "2:cjc154_0089"
    INDEX 01 02:28:39
  TRACK 90 AUDIO
    TITLE "3:cjc154_0090"
    INDEX 01 02:30:15
  TRACK 91 AUDIO
    TITLE "2:cjc154_0091"
    INDEX 01 02:32:00
  TRACK 92 AUDIO
    TITLE "3:cjc154_0092"
    INDEX 01 02:33:43
  TRACK 93 AUDIO
    TITLE "2:cjc154_0093"
    INDEX 01 02:35:24
  TRACK 94 AUDIO
    TITLE "3:cjc154_0094"
    INDEX 01 02:36:31
  TRACK 95 AUDIO
    TITLE "2:cjc154_0095"
    INDEX 01 02:37:50
  TRACK 96 AUDIO
    TITLE "3:cjc154_0096"
    INDEX 01 02:39:12
  TRACK 97 AUDIO
    TITLE "2:cjc154_0097"
    INDEX 01 02:40:54
  TRACK 98 AUDIO
    TITLE "3:cjc154_0098"
    INDEX 01 02:42:49
  TRACK 99 AUDIO
    TITLE "2:cjc154_0099"
    INDEX 01 02:44:52
  TRACK 100 AUDIO
    TITLE "3:cjc154_0100"
    INDEX 01 02:46:18
  TRACK 101 AUDIO
    TITLE "2:cjc154_0101"
    INDEX 01 02:47:64
  TRACK 102 AUDIO
    TITLE "3:cjc154_0102"
    INDEX 01 02:50:21
  TRACK 103 AUDIO
    TITLE "2:cjc154_0103"
    INDEX 01 02:52:52
  TRACK 104 AUDIO
    TITLE "3:cjc154_0104"
    INDEX 01 02:54:70
  TRACK 105 AUDIO
    TITLE "2:cjc154_0105"
    INDEX 01 02:57:12
  TRACK 106 AUDIO
    TITLE "3:cjc154_0106"
    INDEX 01 02:59:34
  TRACK 107 AUDIO
    TITLE "2:cjc154_0107"
    INDEX 01 03:01:66
  TRACK 108 AUDIO
    TITLE "3:cjc154_0108"
    INDEX 01 03:03:57
  TRACK 109 AUDIO
    TITLE "2:cjc154_0109"
    INDEX 01 03:05:54
  TRACK 110 AUDIO
    TITLE "3:cjc154_0110"
    INDEX 01 03:07:71
  TRACK 111 AUDIO
    TITLE "2:cjc154_0111"
    INDEX 01 03:10:22
  TRACK 112 AUDIO
    TITLE "3:cjc154_0112"
    INDEX 01 03:12:13
  TRACK 113 AUDIO
    TITLE "2:cjc154_0113"
    INDEX 01 03:14:10
  TRACK 114 AUDIO
    TITLE "3:cjc154_0114"
    INDEX 01 03:15:55
  TRACK 115 AUDIO
    TITLE "2:cjc154_0115"
    INDEX 01 03:17:34
  TRACK 116 AUDIO
    TITLE "3:cjc154_0116"
    INDEX 01 03:18:57
  TRACK 117 AUDIO
    TITLE "2:cjc154_0117"
    INDEX 01 03:20:15
  TRACK 118 AUDIO
    TITLE "3:cjc154_0118"
    INDEX 01 03:22:10
  TRACK 119 AUDIO
    TITLE "2:cjc154_0119"
    INDEX 01 03:24:12
  TRACK 120 AUDIO
    TITLE "3:cjc154_0120"
    INDEX 01 03:25:73
  TRACK 121 AUDIO
    TITLE "2:cjc154_0121"
    INDEX 01 03:27:66
  TRACK 122 AUDIO
    TITLE "3:cjc154_0122"
    INDEX 01 03:29:67
  TRACK 123 AUDIO
    TITLE "2:cjc154_0123"
    INDEX 01 03:31:69
  TRACK 124 AUDIO
    TITLE "3:cjc154_0124"
    INDEX 01 03:33:13
  TRACK 125 AUDIO
    TITLE "2:cjc154_0125"
    INDEX 01 03:34:42
  TRACK 126 AUDIO
    TITLE "3:cjc154_0126"
    INDEX 01 03:36:12
  TRACK 127 AUDIO
    TITLE "2:cjc154_0127"
    INDEX 01 03:37:66
  TRACK 128 AUDIO
    TITLE "3:cjc154_0128"
    INDEX 01 03:40:00
  TRACK 129 AUDIO
    TITLE "2:cjc154_0129"
    INDEX 01 03:42:22
  TRACK 130 AUDIO
    TITLE "3:cjc154_0130"
    INDEX 01 03:44:11
  TRACK 131 AUDIO
    TITLE "2:cjc154_0131"
    INDEX 01 03:46:14
  TRACK 132 AUDIO
    TITLE "3:cjc154_0132"
    INDEX 01 03:47:72
  TRACK 133 AUDIO
    TITLE "2:cjc154_0133"
    INDEX 01 03:49:63
  TRACK 134 AUDIO
    TITLE "3:cjc154_0134"
    INDEX 01 03:51:11
  TRACK 135 AUDIO
    TITLE "2:cjc154_0135"
    INDEX 01 03:52:44
  TRACK 136 AUDIO
    TITLE "3:cjc154_0136"
    INDEX 01 03:55:13
  TRACK 137 AUDIO
    TITLE "2:cjc154_0137"
    INDEX 01 03:57:65
  TRACK 138 AUDIO
    TITLE "3:cjc154_0138"
    INDEX 01 03:59:62
  TRACK 139 AUDIO
    TITLE "2:cjc154_0139"
    INDEX 01 04:01:65
  TRACK 140 AUDIO
    TITLE "3:cjc154_0140"
    INDEX 01 04:04:43
  TRACK 141 AUDIO
    TITLE "2:cjc154_0141"
    INDEX 01 04:07:30
  TRACK 142 AUDIO
    TITLE "3:cjc154_0142"
    INDEX 01 04:09:11
  TRACK 143 AUDIO
    TITLE "2:cjc154_0143"
    INDEX 01 04:11:02
  TRACK 144 AUDIO
    TITLE "3:cjc154_0144"
    INDEX 01 04:12:29
  TRACK 145 AUDIO
    TITLE "2:cjc154_0145"
    INDEX 01 04:13:64
  TRACK 146 AUDIO
    TITLE "3:cjc154_0146"
    INDEX 01 04:15:24
  TRACK 147 AUDIO
    TITLE "2:cjc154_0147"
    INDEX 01 04:16:60
  TRACK 148 AUDIO
    TITLE "3:cjc154_0148"
    INDEX 01 04:18:45
  TRACK 149 AUDIO
    TITLE "2:cjc154_0149"
    INDEX 01 04:20:36
  TRACK 150 AUDIO
    TITLE "3:cjc154_0150"
    INDEX 01 04:22:26
  TRACK 151 AUDIO
    TITLE "2:cjc154_0151"
    INDEX 01 04:24:21
  TRACK 152 AUDIO
    TITLE "3:cjc154_0152"
    INDEX 01 04:25:45
  TRACK 153 AUDIO
    TITLE "2:cjc154_0153"
    INDEX 01 04:27:01
  TRACK 154 AUDIO
    TITLE "3:cjc154_0154"
    INDEX 01 04:28:50
  TRACK 155 AUDIO
    TITLE "2:cjc154_0155"
    INDEX 01 04:30:33
  TRACK 156 AUDIO
    TITLE "3:cjc154_0156"
    INDEX 01 04:32:18
  TRACK 157 AUDIO
    TITLE "2:cjc154_0157"
    INDEX 01 04:34:11
  TRACK 158 AUDIO
    TITLE "3:cjc154_0158"
    INDEX 01 04:35:60
  TRACK 159 AUDIO
    TITLE "2:cjc154_0159"
    INDEX 01 04:37:39
  TRACK 160 AUDIO
    TITLE "3:cjc154_0160"
    INDEX 01 04:39:03
  TRACK 161 AUDIO
    TITLE "2:cjc154_0161"
    INDEX 01 04:40:47
  TRACK 162 AUDIO
    TITLE "3:cjc154_0162"
    INDEX 01 04:42:01
  TRACK 163 AUDIO
    TITLE "2:cjc154_0163"
    INDEX 01 04:43:45
  TRACK 164 AUDIO
    TITLE "3:cjc154_0164"
    INDEX 01 04:45:54
  TRACK 165 AUDIO
    TITLE "2:cjc154_0165"
    INDEX 01 04:48:00
  TRACK 166 AUDIO
    TITLE "3:cjc154_0166"
    INDEX 01 04:49:73
  TRACK 167 AUDIO
    TITLE "0:"
    INDEX 01 04:52:09
